<svg width="281" height="335" viewBox="0 0 281 335" fill="none" xmlns="http://www.w3.org/2000/svg">
<path d="M13.9481 154.309C4.93179 158.318 -7.69109 171.541 13.9481 192.358C18.7022 195.795 30.4235 200.606 39.2759 192.358C41.5709 192.849 46.1611 201.441 46.1611 231.88C46.1611 262.32 46.1611 305.443 46.1611 323.199M75.1773 334V243.418C93.128 256.101 139.849 276.067 183.128 254.465C226.406 232.862 237.226 174.602 237.226 148.172M237.226 148.172C210.75 142.689 155.488 125.146 146.243 98.8304C143.919 94.7348 140.195 87.0625 137.605 78.9465M237.226 148.172C276.816 142.035 300.668 88.2747 255.422 41.1426C210.177 -5.98951 161.98 -8.19883 81.8166 16.8401C17.6858 36.8713 23.7842 100.836 34.8497 130.314M134.685 63.2358C134.685 68.0691 135.899 73.6039 137.605 78.9465M137.605 78.9465C123.107 74.1187 89.6363 68.1945 71.7347 83.1197C63.2102 88.602 46.1611 104.427 46.1611 123.869V130.006M46.1611 130.006C49.6037 131.888 56.3905 137.174 55.9971 143.262M46.1611 130.006C43.1804 129.882 39 129.916 34.8497 130.314M140.095 229.18C123.374 229.917 84.0297 225.498 69.2757 213.224C57.4725 203.405 58.62 177.22 60.6692 165.355C59.4397 156.518 54.7676 162.901 49.3578 174.193C45.0299 183.226 33.7841 184.339 28.7022 183.766C9.03013 186.221 17.6366 143.262 20.0956 136.143C21.3177 132.605 28.0434 130.969 34.8497 130.314M83.3542 206.596C71.7169 182.473 86.1538 164.088 95.5871 156.764C104.439 149.89 139.275 163.719 155.587 171.492C174.931 172.638 211.75 180.624 204.275 203.405C202.24 209.608 199.259 214.993 195.812 219.606M83.3542 206.596C85.3679 210.77 88.1624 215.116 91.8985 219.606C117.226 250.046 147.964 252.746 167.39 240.963C174.071 238.76 186.602 231.937 195.812 219.606M83.3542 206.596C100.069 197.513 145.961 187.4 195.812 219.606" stroke="#232323" stroke-width="2" stroke-linecap="round"/>
</svg>
